<svg preserveAspectRatio="none" overflow="visible" style="display: block;" width="30" height="30" viewBox="0 0 30 30" fill="none" xmlns="http://www.w3.org/2000/svg">
<g id="Frame" clip-path="url(#clip0_0_160)">
<path id="Subtract" d="M14.9902 0.172852C23.1117 0.173117 29.7744 6.78757 29.7744 14.958C29.7741 23.0793 23.1602 29.6931 14.9902 29.6934C6.86826 29.6934 0.205078 23.0788 0.205078 14.9082C0.253921 6.7867 6.86839 0.172852 14.9902 0.172852ZM15.1846 8.14844C14.6496 8.14844 14.2119 8.58613 14.2119 9.12109V14.3252H9.39746C8.8625 14.3252 8.4248 14.7629 8.4248 15.2979C8.4248 15.8328 8.8625 16.2705 9.39746 16.2705H14.2119V21.1338C14.212 21.6687 14.6496 22.1064 15.1846 22.1064C15.7196 22.1062 16.1565 21.6685 16.1562 21.1338V16.2705H21.0205C21.5553 16.2703 21.9932 15.8327 21.9932 15.2979C21.9932 14.763 21.5553 14.3254 21.0205 14.3252H16.1562V9.12109C16.1562 8.5863 15.7193 8.1487 15.1846 8.14844Z" fill="black"/>
</g>
<defs><clipPath id="clip0_0_160"><rect width="30" height="30" fill="white"/></clipPath></defs>
</svg>
