<svg preserveAspectRatio="none" overflow="visible" style="display: block;" width="360" height="275" viewBox="0 0 360 275" fill="none" xmlns="http://www.w3.org/2000/svg">
<g id="Group 2131333969">
<path id="Ellipse 22016" d="M360 275C360 252.043 355.474 229.31 346.68 208.1C337.886 186.89 324.997 167.618 308.748 151.385C292.499 135.152 273.208 122.275 251.978 113.489C230.748 104.704 207.993 100.182 185.014 100.182C162.034 100.182 139.28 104.704 118.05 113.489C96.8194 122.275 77.529 135.152 61.2801 151.385C45.0311 167.618 32.1417 186.89 23.3479 208.1C14.554 229.31 10.0279 252.043 10.0279 275L185.014 275H360Z" fill="url(#paint0_linear_0_10)" fill-opacity="0.3"/>
<g id="Frame" clip-path="url(#clip0_0_10)">
<path id="Vector" d="M196.956 82.6631L184.823 26.0469L220.933 72.2642L233.644 37.8901L241.443 73.9974L272.643 41.9341L260.798 93.0621L303.842 97.9727L259.932 125.992L297.487 150.545L255.31 146.501L273.509 199.362L235.955 160.077L224.11 181.742L211.977 153.722L168.067 190.696L181.934 138.124L162.001 141.59L174.134 129.458L129.357 102.306L179.623 105.483L164.601 76.0194L196.956 82.6631Z" fill="#FFD21C"/>
<path id="Vector 7532" d="M218.287 123L230.287 126.613L226.932 139" stroke="black" stroke-width="7"/>
<circle id="Ellipse 22017" cx="212.593" cy="106.001" r="6.01671" fill="black"/>
<circle id="Ellipse 22018" cx="240.671" cy="106.001" r="6.01671" fill="black"/>
</g>
<g id="Group 2131333967">
<path id="Rectangle 1430389234" d="M69.0696 218.764L83.8063 207.389L94.4658 233.343L79.729 244.719L69.0696 218.764Z" fill="#FFD21C"/>
<path id="Rectangle 1430389235" d="M98.2037 196.277L112.374 185.339L123.26 211.119L109.09 222.057L98.2037 196.277Z" fill="#FFD21C"/>
</g>
<g id="Group 2131333968">
<path id="Vector 7530" d="M327.801 66.2156L319.077 56.5788C318.229 55.6424 316.737 55.7157 315.986 56.7306L302.478 74.985C301.913 75.7495 301.964 76.8067 302.601 77.5133L307.537 82.9869C308.251 83.7787 309.46 83.8718 310.286 83.1987L327.582 69.1074C328.47 68.3842 328.57 67.0647 327.801 66.2156Z" fill="#FFD21C"/>
<path id="Vector 7531" d="M335.413 93.4039L333.54 83.6063C333.307 82.3883 332.032 81.6739 330.871 82.1106L313.611 88.5998C312.701 88.9419 312.169 89.8881 312.35 90.8427L313.367 96.2244C313.562 97.2538 314.519 97.9583 315.561 97.8391L333.676 95.7658C334.832 95.6335 335.632 94.5464 335.413 93.4039Z" fill="#FFD21C"/>
</g>
<g id="Frame_2" clip-path="url(#clip1_0_10)">
<path id="Vector_2" d="M106.674 107.429L106.334 94.0007C81.2666 94.6346 59.5397 107.68 46.6144 127.054L63.9534 126.615C74.6927 115.191 89.8059 107.855 106.674 107.429ZM107.015 120.857C99.9743 121.05 93.0672 122.821 86.8033 126.037L107.099 125.524L107.015 120.857ZM88.0438 168.365L108.205 167.856L107.695 147.713C105.046 147.777 102.436 148.362 100.014 149.435C97.592 150.508 95.4056 152.047 93.5801 153.966C91.7546 155.884 90.326 158.144 89.376 160.615C88.4259 163.086 87.9733 165.719 88.0438 168.365ZM16.8151 137.347L17.055 146.814L37.5527 146.296C35.2859 153.71 34.1064 161.567 34.2795 169.725L47.7206 169.385C47.5113 161.127 48.958 153.196 51.8002 145.936L66.8542 145.555C62.9241 152.749 60.9607 160.851 61.1617 169.045L74.6027 168.705C74.3634 159.983 77.5667 151.517 83.5212 145.133L131.103 143.93L130.863 134.463L16.8151 137.347Z" fill="#FFD21C"/>
</g>
</g>
<defs>
<linearGradient id="paint0_linear_0_10" x1="185.014" y1="449.818" x2="185.014" y2="100.182" gradientUnits="userSpaceOnUse">
<stop offset="0.536007" stop-color="#FFD21C" stop-opacity="0"/>
<stop offset="1" stop-color="#FFD21C"/>
</linearGradient>
<clipPath id="clip0_0_10">
<rect width="200.557" height="200.364" fill="white" transform="translate(103.287)"/>
</clipPath>
<clipPath id="clip1_0_10">
<rect width="114.03" height="114.036" fill="white" transform="matrix(0.689336 -0.724442 0.725103 0.68864 0 143.721)"/>
</clipPath>
</defs>
</svg>
