<svg preserveAspectRatio="none" overflow="visible" style="display: block;" width="40" height="40" viewBox="0 0 40 40" fill="none" xmlns="http://www.w3.org/2000/svg">
<g id="ic_sy">
<path id="Vector" d="M18.3199 6.62247C19.4649 5.74247 20.825 5.02997 22.2775 5.64247C23.7175 6.25247 24.1775 7.71747 24.3775 9.15997C24.5825 10.6375 24.5825 12.6725 24.5825 15.2025V24.795C24.5825 27.325 24.5825 29.36 24.38 30.84C24.18 32.28 23.7174 33.745 22.2799 34.355C20.8249 34.97 19.4649 34.255 18.3199 33.375C17.1474 32.475 15.6624 30.9575 13.9124 29.1725C13.0124 28.2525 12.4149 27.8075 11.8124 27.56C11.2024 27.31 10.4649 27.2025 9.17745 27.2025C8.06245 27.2025 7.06495 27.2025 6.30995 27.1225C5.51995 27.04 4.78495 26.8625 4.12245 26.41C2.86495 25.55 2.38245 24.2925 2.19745 23.135C2.06495 22.275 2.07995 21.3275 2.09245 20.565V19.435C2.07995 18.6725 2.06745 17.725 2.20245 16.86C2.38495 15.705 2.86745 14.4475 4.12745 13.5875C4.78745 13.1375 5.52245 12.9575 6.31245 12.875C7.06745 12.7975 8.06245 12.7975 9.17745 12.7975C10.4674 12.7975 11.2049 12.69 11.8124 12.44C12.4174 12.19 13.0124 11.745 13.9124 10.8275C15.6624 9.04247 17.1499 7.52247 18.3224 6.62247H18.3199ZM27.325 13.675C27.6765 13.4075 28.1198 13.2904 28.5576 13.3495C28.9954 13.4085 29.3918 13.6389 29.66 13.99C30.92 15.64 31.6674 17.735 31.6674 20C31.6674 22.2625 30.92 24.3575 29.66 26.01C29.5312 26.1943 29.3666 26.3507 29.1758 26.4698C28.9851 26.5888 28.7723 26.6681 28.5501 26.7028C28.328 26.7375 28.1011 26.7269 27.8832 26.6717C27.6653 26.6164 27.4607 26.5177 27.2819 26.3814C27.1031 26.2451 26.9537 26.0741 26.8427 25.8785C26.7317 25.683 26.6614 25.4671 26.636 25.2437C26.6106 25.0203 26.6306 24.7941 26.6949 24.5786C26.7591 24.3632 26.8663 24.1629 27.01 23.99C27.8325 22.91 28.3349 21.525 28.3349 20C28.3349 18.475 27.8325 17.09 27.01 16.01C26.7422 15.6587 26.6247 15.2156 26.6833 14.7778C26.7419 14.3401 26.9717 13.9434 27.3225 13.675H27.325Z" fill="white"/>
<path id="Vector_2" d="M34.5625 10.54C34.4178 10.3677 34.2397 10.2265 34.039 10.1248C33.8383 10.0231 33.6191 9.96312 33.3946 9.9484C33.1701 9.93368 32.9449 9.96454 32.7326 10.0391C32.5204 10.1137 32.3254 10.2305 32.1594 10.3824C31.9935 10.5344 31.86 10.7183 31.767 10.9232C31.674 11.1281 31.6235 11.3497 31.6184 11.5746C31.6133 11.7995 31.6538 12.0232 31.7374 12.2321C31.821 12.4409 31.9461 12.6307 32.105 12.79C33.935 14.7925 35 17.3 35 20C35 22.7 33.935 25.2075 32.105 27.2075C31.8285 27.5367 31.6899 27.96 31.718 28.3889C31.7462 28.8179 31.9389 29.2194 32.2559 29.5097C32.573 29.8 32.9899 29.9566 33.4197 29.9469C33.8494 29.9372 34.2589 29.7619 34.5625 29.4575C36.9025 26.905 38.3325 23.6125 38.3325 20C38.3325 16.3875 36.9025 13.095 34.5625 10.54Z" fill="white"/>
</g>
</svg>
