<svg preserveAspectRatio="none" overflow="visible" style="display: block;" width="30" height="30" viewBox="0 0 30 30" fill="none" xmlns="http://www.w3.org/2000/svg">
<g id="Frame">
<path id="Vector" d="M3.08749 24.075L7.82499 19.3375C8.21002 19.0082 8.70511 18.8362 9.21141 18.8559C9.71771 18.8756 10.1979 19.0855 10.5562 19.4438C10.9145 19.8021 11.1244 20.2823 11.1441 20.7886C11.1638 21.2949 10.9918 21.79 10.6625 22.175L5.92499 26.9125C5.74463 27.1234 5.52262 27.2947 5.27291 27.4156C5.02319 27.5366 4.75116 27.6046 4.47391 27.6153C4.19666 27.6261 3.92017 27.5795 3.66181 27.4783C3.40345 27.3771 3.16881 27.2236 2.97261 27.0274C2.77642 26.8312 2.62291 26.5966 2.52173 26.3382C2.42056 26.0799 2.3739 25.8034 2.38469 25.5261C2.39547 25.2489 2.46348 24.9768 2.58442 24.7271C2.70537 24.4774 2.87664 24.2554 3.08749 24.075ZM26.9125 24.075L22.175 19.3375C21.79 19.0082 21.2949 18.8362 20.7886 18.8559C20.2823 18.8756 19.802 19.0855 19.4438 19.4438C19.0855 19.8021 18.8755 20.2823 18.8558 20.7886C18.8361 21.2949 19.0081 21.79 19.3375 22.175L24.075 26.9125C24.2553 27.1234 24.4774 27.2947 24.7271 27.4156C24.9768 27.5366 25.2488 27.6046 25.5261 27.6153C25.8033 27.6261 26.0798 27.5795 26.3382 27.4783C26.5965 27.3771 26.8312 27.2236 27.0274 27.0274C27.2236 26.8312 27.3771 26.5966 27.4782 26.3382C27.5794 26.0799 27.6261 25.8034 27.6153 25.5261C27.6045 25.2489 27.5365 24.9768 27.4156 24.7271C27.2946 24.4774 27.1233 24.2554 26.9125 24.075Z" fill="#FF800A"/>
<path id="Vector_2" d="M2.49998 6.87494C2.49998 7.44947 2.61315 8.01838 2.83301 8.54918C3.05288 9.07998 3.37514 9.56227 3.78139 9.96853C4.18765 10.3748 4.66995 10.697 5.20074 10.9169C5.73154 11.1368 6.30045 11.2499 6.87499 11.2499C7.44952 11.2499 8.01843 11.1368 8.54922 10.9169C9.08002 10.697 9.56232 10.3748 9.96858 9.96853C10.3748 9.56227 10.6971 9.07998 10.917 8.54918C11.1368 8.01838 11.25 7.44947 11.25 6.87494C11.25 6.30041 11.1368 5.7315 10.917 5.2007C10.6971 4.6699 10.3748 4.1876 9.96858 3.78135C9.56232 3.37509 9.08002 3.05283 8.54922 2.83297C8.01843 2.6131 7.44952 2.49994 6.87499 2.49994C6.30045 2.49994 5.73154 2.6131 5.20074 2.83297C4.66995 3.05283 4.18765 3.37509 3.78139 3.78135C3.37514 4.1876 3.05288 4.6699 2.83301 5.2007C2.61315 5.7315 2.49998 6.30041 2.49998 6.87494Z" fill="#FFEEA5"/>
<path id="Vector_3" d="M18.75 6.87494C18.75 8.03526 19.2109 9.14806 20.0314 9.96853C20.8519 10.789 21.9647 11.2499 23.125 11.2499C24.2853 11.2499 25.3981 10.789 26.2186 9.96853C27.0391 9.14806 27.5 8.03526 27.5 6.87494C27.5 5.71462 27.0391 4.60182 26.2186 3.78135C25.3981 2.96088 24.2853 2.49994 23.125 2.49994C21.9647 2.49994 20.8519 2.96088 20.0314 3.78135C19.2109 4.60182 18.75 5.71462 18.75 6.87494Z" fill="#FFEEA5"/>
<path id="Vector_4" d="M3.12502 15.625C3.12502 17.1844 3.43217 18.7286 4.02895 20.1694C4.62572 21.6101 5.50043 22.9192 6.60312 24.0219C7.70582 25.1246 9.01491 25.9993 10.4557 26.5961C11.8964 27.1928 13.4406 27.5 15 27.5C16.5595 27.5 18.1036 27.1928 19.5444 26.5961C20.9851 25.9993 22.2942 25.1246 23.3969 24.0219C24.4996 22.9192 25.3743 21.6101 25.9711 20.1694C26.5679 18.7286 26.875 17.1844 26.875 15.625C26.875 12.4756 25.6239 9.4551 23.3969 7.22811C21.1699 5.00111 18.1495 3.75 15 3.75C11.8506 3.75 8.83012 5.00111 6.60312 7.22811C4.37613 9.4551 3.12502 12.4756 3.12502 15.625Z" fill="#FFD21C"/>
<path id="Vector_5" d="M19.7 13.5875H15.95V7.77504C15.9483 7.70918 15.925 7.6457 15.8837 7.5944C15.8424 7.5431 15.7853 7.50683 15.7213 7.49119C15.6573 7.47554 15.59 7.4814 15.5296 7.50785C15.4693 7.5343 15.4193 7.57988 15.3875 7.63754L9.99998 16C9.97569 16.0446 9.96361 16.0948 9.96498 16.1455C9.96635 16.1962 9.98111 16.2456 10.0078 16.2888C10.0344 16.332 10.072 16.3673 10.1168 16.3912C10.1615 16.4152 10.2118 16.4268 10.2625 16.425H14.0125V22.2125C14.0141 22.2784 14.0374 22.3419 14.0788 22.3932C14.1201 22.4445 14.1772 22.4808 14.2412 22.4964C14.3051 22.512 14.3725 22.5062 14.4328 22.4797C14.4932 22.4533 14.5431 22.4077 14.575 22.35L20 14C20.0247 13.9574 20.0375 13.9088 20.037 13.8595C20.0365 13.8102 20.0227 13.7619 19.9972 13.7197C19.9716 13.6776 19.9352 13.643 19.8917 13.6198C19.8482 13.5965 19.7993 13.5854 19.75 13.5875H19.7Z" fill="#FF0086"/>
</g>
</svg>
