<svg width="48" height="48" viewBox="0 0 48 48" fill="none" xmlns="http://www.w3.org/2000/svg">
<g opacity="0.8">
<path d="M15.2059 13.5758C16.523 13.5758 17.6012 12.4977 17.6012 11.1805V6.65703C17.6012 5.33984 16.523 4.26172 15.2059 4.26172C13.8887 4.26172 12.8105 5.33984 12.8105 6.65703V11.1805C12.8105 12.4977 13.8887 13.5758 15.2059 13.5758Z" fill="#999999"/>
<path d="M43.4441 14.5172C43.4441 11.2266 40.7535 8.53594 37.4629 8.53594H35.8457V11.7516C35.8457 13.3969 34.5004 14.7422 32.8551 14.7422C31.2098 14.7422 29.8598 13.3922 29.8598 11.7469V8.53125H18.1973V11.7469C18.1973 13.3922 16.852 14.7375 15.2066 14.7375C13.5613 14.7375 12.216 13.3922 12.216 11.7469V8.53125H10.5379C7.24727 8.53125 4.55664 11.2219 4.55664 14.5125V37.7438C4.55664 41.0344 7.24727 43.725 10.5379 43.725H37.4629C40.7535 43.725 43.4441 41.0344 43.4441 37.7438V16.8094V16.7906V14.5172ZM37.4629 34.7578C37.4629 36.4031 36.1176 37.7484 34.4723 37.7484H13.5285C11.8832 37.7484 10.5379 36.4031 10.5379 34.7578V18.5625H37.4629V34.7578Z" fill="#999999"/>
<path d="M32.85 13.5758C34.1672 13.5758 35.2453 12.4977 35.2453 11.1805V6.65703C35.2453 5.33984 34.1672 4.26172 32.85 4.26172C31.5328 4.26172 30.4547 5.33984 30.4547 6.65703V11.1805C30.4594 12.4977 31.5328 13.5758 32.85 13.5758ZM22.3078 29.307C21.7078 30.7273 21.2672 32.4852 20.9859 34.5852H24.5437C24.6609 33.0758 24.8906 31.7727 25.2281 30.6664C25.6547 29.2461 26.2359 27.957 26.9719 26.7992C27.5813 25.8477 28.3359 24.9617 29.2406 24.1414V21.732H18.8203V24.7508H25.1672C23.8594 26.368 22.9078 27.8867 22.3078 29.307Z" fill="#999999"/>
</g>
</svg>
