<svg width="40" height="40" viewBox="0 0 40 40" fill="none" xmlns="http://www.w3.org/2000/svg">
<path d="M31.3147 37.0199C30.7634 37.0199 30.3184 36.5748 30.3184 36.0235V26.5452C30.3184 25.9939 30.7634 25.5488 31.3147 25.5488C31.866 25.5488 32.3111 25.9939 32.3111 26.5452V36.0184C32.3111 36.5748 31.866 37.0199 31.3147 37.0199Z" fill="#999999"/>
<path d="M25.5781 31.2833C25.5781 30.7675 25.9979 30.3477 26.5138 30.3477H36.1084C36.6243 30.3477 37.0441 30.7675 37.0441 31.2833C37.0441 31.7992 36.6243 32.219 36.1084 32.219H26.5138C25.9979 32.219 25.5781 31.7992 25.5781 31.2833Z" fill="#999999"/>
<path d="M23.7023 37.055H9.82372C6.03038 37.055 2.9502 33.9798 2.9502 30.1814V9.81883C2.9502 6.0255 6.02532 2.94531 9.82372 2.94531H30.1914C33.9847 2.94531 37.0649 6.02044 37.0649 9.81883V23.93C37.0649 24.4864 36.6097 24.9416 36.0534 24.9416C35.497 24.9416 35.0418 24.4864 35.0418 23.93V9.81883C35.0418 7.13821 32.872 4.96842 30.1914 4.96842H9.82372C7.14309 4.96842 4.97331 7.13821 4.97331 9.81883V30.1865C4.97331 32.8671 7.14309 35.0369 9.82372 35.0369H23.7023C24.2586 35.0369 24.7138 35.4921 24.7138 36.0485C24.7138 36.6048 24.2586 37.055 23.7023 37.055Z" fill="#999999"/>
<path d="M25.1687 21.9221L17.2735 26.4791C15.7916 27.3339 13.9404 26.2667 13.9404 24.5572V15.438C13.9404 13.7284 15.7916 12.6562 17.2735 13.516L25.1687 18.0731C26.6456 18.9329 26.6456 21.0673 25.1687 21.9221Z" fill="#999999"/>
</svg>
