<svg preserveAspectRatio="none" overflow="visible" style="display: block;" width="72" height="72" viewBox="0 0 72 72" fill="none" xmlns="http://www.w3.org/2000/svg">
<g id="Group 2131334162">
<circle id="Ellipse 22081" cx="36" cy="36" r="36" fill="#333333"/>
<g id="Frame">
<path id="Vector" d="M21.879 21.3605H49.645C50.4429 21.3605 51.0812 21.9988 51.0812 22.7967V34.1265C49.645 33.0095 46.9322 31.2542 44.8578 31.2542C41.8259 31.2542 39.1131 38.2754 35.762 38.2754C33.2088 38.1159 29.6982 35.2435 25.7088 35.7222C24.1131 36.0414 21.879 38.5946 20.4429 40.5095V22.7967C20.4429 21.9988 21.0812 21.3605 21.879 21.3605ZM28.5811 32.8499C27.3045 32.8499 26.1875 32.3712 25.3896 31.5733C24.5918 30.7754 24.113 29.4988 24.113 28.3818C24.113 27.2648 24.5918 25.9882 25.3896 25.1903C26.1875 24.3924 27.3045 23.9137 28.5811 23.9137C29.6982 23.9137 30.8152 24.3924 31.7726 25.1903C32.5705 25.9882 33.0492 27.2648 33.0492 28.3818C33.0492 29.4988 32.5705 30.7754 31.7726 31.5733C30.8152 32.3712 29.6982 32.8499 28.5811 32.8499ZM50.4428 19.2861H21.0811C19.4854 19.2861 18.2088 20.5627 18.2088 22.1584V48.3286C18.2088 49.9244 19.4854 51.201 21.0811 51.201H50.4428C52.0386 51.201 53.3152 49.9244 53.3152 48.3286V22.1584C53.3152 20.5627 52.0386 19.2861 50.4428 19.2861Z" fill="#999999"/>
</g>
</g>
</svg>
